<svg xmlns="http://www.w3.org/2000/svg" xmlns:xlink="http://www.w3.org/1999/xlink" width="109" height="151" viewBox="0 0 109 151" fill="#fff" fill-rule="evenodd" stroke="#000" stroke-linecap="round" stroke-linejoin="round">
  <style>
    .B {stroke:none}
    .C {fill:#fdcc9b}
    .D {font-weight:bold}
    .E {text-anchor:start}
  </style><use xlink:href="#A" x=".5" y=".5"/>
  <symbol id="A" overflow="visible">
    <g class="B">
      <path d="M53.976 150H0c0-11.33 28.43-27.99 53.976-27.99s53.976 16.66 53.976 27.99z" fill="#cce5ff"/>
      <path d="M53.976 122.01c-5.433 0-10.997.76-16.4 2.055.036.048 5.982 7.72 16.4 7.72 9.638 0 16.045-6.57 16.974-7.58-5.575-1.384-11.344-2.195-16.974-2.195z" fill="#66d9ff"/>
      <path d="M92.952 67.5q9.5 0 9.5 9-1.5 13-13 12 0-21 3.5-21z" class="C"/>
    </g>
    <path d="M13.952 67.5q-9.5 0-9.5 9 1.5 13 13 12 0-21-3.5-21z" class="B C"/>
    <g class="B">
      <path d="M97.07 49.818c0-18.214-13.328-31.543-43.094-31.543S10.883 31.603 10.883 49.818s-3.1 66.196 43.094 66.196S97.07 68.033 97.07 49.818z" class="C"/>
      <path d="M25.524 57.815c2.206 1.103 5.748-3.748 13.855.472 1.478.77 2.36-6.58-6.33-6.58-7.525 0-8.858 5.442-7.525 6.108zm56.904 0c-2.206 1.103-5.748-3.748-13.855.472-1.478.77-2.36-6.58 6.33-6.58 7.524 0 8.857 5.442 7.524 6.108z" fill="#262626"/>
      <path d="M52.827 88.875c-4.6 0-6.237-4.87-6.237-3.205s1.333 4.832 7.386 4.832 7.386-3.165 7.386-4.832-3.285 4.705-7.285 2.58z" fill="#fcbc85"/><path d="M28.82 70.476c0-2.83 1.478-5.1 3.315-5.1s3.315 2.28 3.315 5.1-1.48 5.1-3.315 5.1-3.315-2.28-3.315-5.1zm43.5-.586c0-2.83 1.478-5.1 3.315-5.1s3.315 2.28 3.315 5.1-1.477 5.1-3.314 5.1-3.315-2.28-3.315-5.1z" fill="#000"/>
      <g fill="#646464">
        <circle cx="31.39" cy="68.938" r="1.438"/>
        <circle cx="74.64" cy="68.688" r="1.438"/>
      </g>
      <path d="M53.462 104.63c-2.425 0-3.282-1.11-3.282-.73s.7 1.1 3.886 1.1 3.886-.72 3.886-1.1-1.728 1.07-3.833.587z" fill="#fcbc85"/>
      <path d="M42.452 114v9.25q12 10 22.75-.25v-8.5z" class="C"/>
    </g>
      <g class="B">
        <path d="M64.77 99.086a.84.84 0 0 0-.697-.019A25.76 25.76 0 0 1 54.521 101c-5.233 0-9.5-1.914-9.552-1.933-.2-.095-.502-.087-.697.02s-.24.283-.103.42C44.3 99.648 47.7 103 54.52 103s10.212-3.352 10.353-3.496c.135-.137.092-.312-.103-.42" fill="#f7945e"/>
        <path d="M96.076 58.356c-.2 4.498-.684 8.894-1.325 12.995 8.91-15.062 10.926-33.882 7.86-45.455-2.2-8.298-7.338-14.4-16.624-15.83-21.675-14.223-53.9-14.045-69.2 4.84-12.205 15.008-9.9 41.79-4.283 58.413.44 1.304.94 2.538 1.5 3.705-.962-4.775-1.774-10.168-2.172-15.8.795-12.714 4.998-21.708 11.966-28.872a5.65 5.65 0 0 0 .412.421c2.955 2.727 9.407 3.263 12.588 3.485a33.62 33.62 0 0 0 11.377-1.383l5.196-1.506c9.858 4.068 35.935-14.822 42.696 24.976z" fill="#262626"/>
      </g>
  </symbol>
</svg>