<svg xmlns="http://www.w3.org/2000/svg" xmlns:xlink="http://www.w3.org/1999/xlink" width="150" height="30"
	 viewBox="0 0 150 30" xml:space="preserve">
<style type="text/css">
	.letter {
		fill: #fff;
	}

	.dot {
		fill: #ff6347;
	}
</style>
<g>
	<g>
		<path class="letter" d="M16.86,3.87h2.65v18.92h-2.76V8.62l0.14,0.83l-4.97,10.71H9.95L4.98,9.71l0.14-1.09v14.17H2.36V3.87h2.65
			l5.93,12.5L16.86,3.87z"/>
		<path class="dot" d="M23.74,20h2.97v2.79h-2.97V20z"/>
		<path class="letter" d="M30.95,3.87h2.83v18.92h-2.83V3.87z M33.17,14.49l8.91-10.62h3.48l-12.81,14.6L33.17,14.49z M36.53,12.69
			l2.23-1.94l7.65,12.04h-3.47L36.53,12.69z"/>
		<path class="letter" d="M49.53,21.95c-0.88-0.69-1.32-1.74-1.32-3.14c0-1.34,0.4-2.34,1.21-3.01s2.02-1,3.65-1h4.09l0.19,2.13h-4.27
			c-0.74,0-1.29,0.15-1.66,0.46c-0.37,0.31-0.55,0.78-0.55,1.41c0,0.69,0.24,1.19,0.73,1.52c0.49,0.33,1.22,0.5,2.21,0.5
			c1.08,0,1.89-0.11,2.42-0.33c0.53-0.22,0.8-0.55,0.8-1.01l0.29,1.9c-0.25,0.36-0.56,0.66-0.92,0.9c-0.37,0.23-0.79,0.41-1.27,0.53
			c-0.48,0.12-1.02,0.18-1.62,0.18C51.74,22.99,50.41,22.64,49.53,21.95z M57.04,14.23c0-0.88-0.25-1.57-0.76-2.06
			c-0.5-0.49-1.22-0.74-2.14-0.74c-0.57,0-1.14,0.08-1.69,0.25c-0.55,0.17-1.04,0.4-1.46,0.69l-2.07-1.33
			c0.55-0.62,1.27-1.1,2.16-1.44c0.89-0.34,1.89-0.51,2.98-0.51c1.19,0,2.22,0.2,3.07,0.59c0.85,0.4,1.5,0.97,1.94,1.72
			c0.44,0.75,0.67,1.66,0.67,2.71v8.68h-2.69V14.23z"/>
		<path class="letter" d="M64.03,9.28h2.83v13.51h-2.83V9.28z M71.01,11.83c-0.38-0.15-0.82-0.22-1.32-0.22c-0.9,0-1.59,0.23-2.09,0.7
			c-0.5,0.46-0.74,1.11-0.74,1.93l-0.29-2.6c0.44-0.81,1.02-1.43,1.72-1.88c0.7-0.45,1.48-0.67,2.33-0.67
			c0.66,0,1.25,0.09,1.78,0.27c0.53,0.18,1,0.44,1.39,0.79l-1.85,2.34C71.71,12.2,71.39,11.98,71.01,11.83z"/>
		<path class="letter" d="M74.63,9.28h2.89l4.43,11.74l-1.57,2.88L74.63,9.28z M87.39,9.28l-6.13,16.67c-0.22,0.62-0.51,1.1-0.88,1.46
			c-0.36,0.36-0.8,0.62-1.33,0.77s-1.18,0.23-1.94,0.23h-0.57v-2.55h0.57c0.53,0,0.95-0.1,1.26-0.3c0.31-0.2,0.58-0.54,0.81-1.03
			L84.5,9.28H87.39z"/>
		<path class="letter" d="M90.51,21.95c-0.88-0.69-1.32-1.74-1.32-3.14c0-1.34,0.4-2.34,1.21-3.01c0.8-0.67,2.02-1,3.65-1h4.09
			l0.19,2.13h-4.27c-0.74,0-1.29,0.15-1.66,0.46s-0.55,0.78-0.55,1.41c0,0.69,0.24,1.19,0.73,1.52c0.49,0.33,1.22,0.5,2.21,0.5
			c1.08,0,1.89-0.11,2.42-0.33c0.53-0.22,0.8-0.55,0.8-1.01l0.29,1.9c-0.25,0.36-0.56,0.66-0.92,0.9c-0.37,0.23-0.79,0.41-1.27,0.53
			c-0.48,0.12-1.02,0.18-1.62,0.18C92.72,22.99,91.39,22.64,90.51,21.95z M98.02,14.23c0-0.88-0.25-1.57-0.76-2.06
			c-0.5-0.49-1.22-0.74-2.14-0.74c-0.57,0-1.14,0.08-1.69,0.25c-0.55,0.17-1.04,0.4-1.46,0.69l-2.07-1.33
			c0.55-0.62,1.26-1.1,2.16-1.44c0.89-0.34,1.88-0.51,2.98-0.51c1.19,0,2.22,0.2,3.07,0.59c0.85,0.4,1.5,0.97,1.94,1.72
			s0.67,1.66,0.67,2.71v8.68h-2.69V14.23z"/>
		<path class="letter" d="M105.01,9.28h2.83v13.51h-2.83V9.28z M113.62,14.6c0-0.95-0.25-1.69-0.75-2.21s-1.21-0.78-2.12-0.78
			c-0.93,0-1.64,0.23-2.14,0.69c-0.5,0.46-0.76,1.11-0.76,1.94l-0.29-2.6c0.44-0.82,1.02-1.44,1.74-1.89
			c0.72-0.44,1.51-0.66,2.38-0.66c1.01,0,1.87,0.21,2.58,0.64c0.71,0.43,1.26,1.06,1.63,1.88c0.37,0.82,0.56,1.82,0.56,2.98v8.2
			h-2.83V14.6z M122.22,14.6c0-0.95-0.26-1.69-0.79-2.21s-1.27-0.78-2.22-0.78c-0.88,0-1.56,0.25-2.04,0.75
			c-0.48,0.5-0.72,1.21-0.72,2.13l-0.57-2.6c0.45-0.89,1.05-1.59,1.8-2.08c0.74-0.49,1.57-0.74,2.46-0.74
			c1.04,0,1.92,0.21,2.66,0.64s1.29,1.06,1.68,1.88s0.58,1.82,0.58,2.98v8.2h-2.83V14.6z"/>
		<path class="letter" d="M129.35,3.87h2.83v2.66h-2.83V3.87z M129.35,9.28h2.83v13.51h-2.83V9.28z"/>
		<path class="letter" d="M136.49,9.28h2.83v13.51h-2.83V9.28z M145.23,14.6c0-0.95-0.26-1.69-0.79-2.21s-1.27-0.78-2.22-0.78
			c-0.93,0-1.64,0.23-2.14,0.69c-0.5,0.46-0.76,1.11-0.76,1.94l-0.29-2.6c0.44-0.82,1.02-1.44,1.74-1.89
			c0.72-0.44,1.51-0.66,2.38-0.66c1.56,0,2.77,0.48,3.63,1.44c0.86,0.96,1.28,2.31,1.28,4.07v8.2h-2.83V14.6z"/>
	</g>
</g>
</svg>
